HIERARCHY
ROOT root
{
	OFFSET	0	13.1	24.9
	CHANNELS 6  Xposition Yposition Zposition Xrotation Yrotation Zrotation
	JOINT spine_1
	{
		OFFSET	0	9.99999	0
		CHANNELS 3  Xrotation Yrotation Zrotation
		JOINT spine_2
		{
			OFFSET	0	112	-10
			CHANNELS 3  Xrotation Yrotation Zrotation
			JOINT spine_3
			{
				OFFSET	0	206.5	19.3
				CHANNELS 3  Xrotation Yrotation Zrotation
				JOINT spine_4
				{
					OFFSET	0	110.4	14.6
					CHANNELS 3  Xrotation Yrotation Zrotation
					JOINT neck_1
					{
						OFFSET	0	71.8	-50.3
						CHANNELS 3  Xrotation Yrotation Zrotation
						JOINT neck_2
						{
							OFFSET	0	86.2	-25.8
							CHANNELS 3  Xrotation Yrotation Zrotation
							JOINT head_ee
							{
								OFFSET	0	179.8	-8.7
								CHANNELS 3  Xrotation Yrotation Zrotation
								End Site
								{
									OFFSET	1	0	0
								}
							}
						}
					}
					JOINT left_clavicle
					{
						OFFSET	-43.2	22.4	-70.8
						CHANNELS 3  Xrotation Yrotation Zrotation
						JOINT left_shoulder
						{
							OFFSET	-93.9	-5.79999	48.7
							CHANNELS 3  Xrotation Yrotation Zrotation
							JOINT left_elbow
							{
								OFFSET	-291.4	-30.8	15.2
								CHANNELS 3  Xrotation Yrotation Zrotation
								JOINT left_lowarm_twist
								{
									OFFSET	-110.7	-3.89999	13.6
									CHANNELS 3  Xrotation Yrotation Zrotation
									JOINT left_hand
									{
										OFFSET	-110.7	-3.89999	13.6
										CHANNELS 3  Xrotation Yrotation Zrotation
										JOINT left_ee
										{
											OFFSET	-80.8	-5.10001	12.1
											CHANNELS 3  Xrotation Yrotation Zrotation
											End Site
											{
												OFFSET	1	0	0
											}
										}
									}
								}
							}
						}
					}
					JOINT right_clavicle
					{
						OFFSET	43.2	22.4	-70.8
						CHANNELS 3  Xrotation Yrotation Zrotation
						JOINT right_shoulder
						{
							OFFSET	93.9	-5.79999	48.7
							CHANNELS 3  Xrotation Yrotation Zrotation
							JOINT right_elbow
							{
								OFFSET	291.4	-30.8	15.2
								CHANNELS 3  Xrotation Yrotation Zrotation
								JOINT right_lowarm_twist
								{
									OFFSET	110.7	-3.89999	13.6
									CHANNELS 3  Xrotation Yrotation Zrotation
									JOINT right_hand
									{
										OFFSET	110.7	-3.89999	13.6
										CHANNELS 3  Xrotation Yrotation Zrotation
										JOINT right_ee
										{
											OFFSET	80.8	-5.10001	12.1
											CHANNELS 3  Xrotation Yrotation Zrotation
											End Site
											{
												OFFSET	1	0	0
											}
										}
									}
								}
							}
						}
					}
				}
			}
		}
	}
	JOINT left_hip
	{
		OFFSET	-82.8	-127.5	0.300001
		CHANNELS 3  Xrotation Yrotation Zrotation
		JOINT left_knee
		{
			OFFSET	-28.2	-396.7	2.2
			CHANNELS 3  Xrotation Yrotation Zrotation
			JOINT left_ankle
			{
				OFFSET	-11.7	-411.3	35.4
				CHANNELS 3  Xrotation Yrotation Zrotation
				JOINT left_toes
				{
					OFFSET	0	-60	-88.6
					CHANNELS 3  Xrotation Yrotation Zrotation
					JOINT left_foot_ee
					{
						OFFSET	-22.5	-16.5	-42.2
						CHANNELS 3  Xrotation Yrotation Zrotation
						End Site
						{
							OFFSET	1	0	0
						}
					}
				}
			}
		}
	}
	JOINT right_hip
	{
		OFFSET	82.8	-127.5	0.300001
		CHANNELS 3  Xrotation Yrotation Zrotation
		JOINT right_knee
		{
			OFFSET	28.2	-396.7	2.2
			CHANNELS 3  Xrotation Yrotation Zrotation
			JOINT right_ankle
			{
				OFFSET	11.7	-411.3	35.4
				CHANNELS 3  Xrotation Yrotation Zrotation
				JOINT right_toes
				{
					OFFSET	0	-60	-88.6
					CHANNELS 3  Xrotation Yrotation Zrotation
					JOINT right_foot_ee
					{
						OFFSET	22.5	-16.5	-42.2
						CHANNELS 3  Xrotation Yrotation Zrotation
						End Site
						{
							OFFSET	1	0	0
						}
					}
				}
			}
		}
	}
}
MOTION
Frames: 7
Frame Time: 0.02
540.28913623 718.592 -1179.16270636 177.517185751 -47.0379504129 -179.242628736 -0.859675 -0.350666 -2.31148 -0.856725 -0.20291 -2.3291 -0.846226 0.325492 -2.31516 -0.853703 -0.0441258 -2.3375 -12.1201 17.5333 10.0725 -12.2455 26.9114 14.6587 -0.0 0.0 -0.0 10.4542 15.8376 18.8987 -30.1633 -39.562 43.4441 0.737512 -20.0694 0.130505 -7.90091 -0.344443 0.94872 1.40942 -2.61679 8.39106 -0.0 0.0 -0.0 10.3354 7.86138 -20.576 -28.6259 17.9818 -45.8967 1.02403 26.897 -0.244882 -34.2871 2.36509 -3.6209 -6.09486 -1.96515 44.0311 0.0 0.0 0.0 -11.2125 18.2144 1.11402 -3.36028 0.123695 0.500789 28.3047 -14.2053 -3.95368 30.9724 -0.0 -0.0 -0.0 0.0 -0.0 22.9856 -3.85815 9.45267 -38.2657 0.360138 -5.75396 22.8182 -25.5403 3.24396 31.8691 -0.0 -0.0 0.0 0.0 0.0 
553.316160513 719.883 -1173.04555946 177.368396012 -45.5210623606 -179.482011822 -1.17025 -0.403275 -2.30038 -1.16735 -0.256119 -2.32137 -1.15442 0.284342 -2.31808 -1.16191 -0.0852209 -2.33389 -12.5069 17.0602 9.8709 -12.6508 26.2363 14.4204 -0.0 0.0 -0.0 10.6614 15.6926 19.2834 -29.2004 -40.2849 42.1411 0.818882 -22.0798 0.159769 -7.92481 -0.345682 0.951516 1.17583 -2.88226 6.69797 -0.0 0.0 -0.0 10.0192 7.92213 -19.8887 -29.0921 17.1975 -46.2361 0.94988 25.1986 -0.212316 -34.2401 2.36046 -3.61704 -6.09235 -1.78103 44.143 0.0 0.0 0.0 -11.4457 18.0549 1.46817 -4.23092 0.150931 0.631629 27.8735 -15.2589 -3.93165 30.9735 -0.0 -0.0 -0.0 0.0 -0.0 25.1439 -2.87968 9.48971 -34.4275 0.15082 -5.2027 22.0709 -24.7602 3.13395 31.8858 -0.0 -0.0 0.0 0.0 0.0 
564.543335449 718.129 -1164.62751987 177.525952901 -43.855027005 -179.331101266 -1.11211 -0.432739 -2.36836 -1.10903 -0.281201 -2.39108 -1.09462 0.273448 -2.39198 -1.10259 -0.107639 -2.40514 -12.501 16.7573 9.37074 -12.6647 25.9709 13.862 -0.0 0.0 -0.0 10.7582 15.356 19.5081 -28.1122 -40.9507 42.1381 0.884109 -23.6513 0.185117 -7.92532 -0.345709 0.951576 1.03546 -3.06864 5.67166 -0.0 0.0 -0.0 9.75508 7.81688 -19.3174 -29.4442 16.6391 -46.8595 0.89364 23.8779 -0.188957 -34.2094 2.35744 -3.61453 -6.09287 -1.69505 44.211 0.0 0.0 0.0 -11.8701 18.9032 2.03957 -4.89391 0.170334 0.731526 28.0348 -15.9242 -3.96878 31.0225 -0.0 -0.0 -0.0 0.0 -0.0 25.2629 -2.13069 9.59916 -31.9734 0.036564 -4.84353 21.5628 -24.2791 3.06043 32.0318 -0.0 -0.0 0.0 0.0 0.0 
572.768182207 715.968 -1158.058375 177.827514378 -43.2921357419 -179.411593862 -1.19028 -0.430082 -2.28532 -1.18742 -0.283829 -2.30804 -1.17341 0.255053 -2.31139 -1.18085 -0.113088 -2.32267 -12.6419 16.6256 9.23745 -12.8188 25.8381 13.7314 -0.0 0.0 -0.0 10.7845 15.6238 19.5105 -27.3294 -41.2359 41.3376 0.932294 -24.7886 0.204885 -7.92703 -0.345797 0.951775 0.905619 -3.19286 4.7435 -0.0 0.0 -0.0 9.67479 8.00467 -19.1434 -29.708 16.3363 -47.2569 0.848903 22.8076 -0.171231 -34.1836 2.35489 -3.61241 -6.09011 -1.63317 44.2304 0.0 0.0 0.0 -11.7174 18.072 2.16242 -5.10426 0.176249 0.763267 28.3478 -16.4301 -4.01967 31.1353 -0.0 -0.0 -0.0 0.0 -0.0 25.8205 -1.54451 9.85635 -30.3969 -0.028659 -4.61041 21.2783 -23.7351 3.01501 32.1122 -0.0 -0.0 0.0 0.0 0.0 
577.591777452 718.245 -1153.06159162 179.500128162 -42.9619486292 -178.205675329 -0.963376 -0.274949 -2.36948 -0.960261 -0.12366 -2.38216 -0.952791 0.419082 -2.34828 -0.960484 0.0430648 -2.38498 -13.0204 16.8024 10.3375 -13.149 25.5836 14.8913 -0.0 0.0 -0.0 10.5729 16.6859 18.967 -23.8496 -42.3014 40.9682 1.12817 -29.1982 0.293856 -8.32208 -0.366451 0.997887 0.531153 -3.29213 2.17933 -0.0 0.0 -0.0 9.77081 8.04316 -19.3507 -30.1833 16.3291 -47.4381 0.685098 18.7461 -0.113088 -34.1654 2.35309 -3.61091 -5.92347 -0.573193 43.4331 0.0 0.0 0.0 -11.2893 18.8841 2.11231 -4.40839 0.156238 0.658349 24.5669 -16.4393 -3.56581 30.8731 -0.0 -0.0 -0.0 0.0 -0.0 26.4956 -1.46079 9.45726 -25.564 -0.188259 -3.88608 20.4425 -22.9356 2.89512 31.3806 -0.0 -0.0 0.0 0.0 0.0 
584.538352742 718.914 -1149.65896163 178.819386722 -43.8784136192 -178.968595132 -1.39821 -0.187169 -2.38457 -1.39505 -0.0350978 -2.39164 -1.39102 0.525435 -2.33351 -1.39859 0.150418 -2.38717 -13.28 16.6472 10.9886 -13.3606 24.9496 15.4991 -0.0 0.0 -0.0 10.4534 17.9765 18.547 -21.3559 -42.7421 41.519 1.37009 -34.163 0.421029 -8.25359 -0.362847 0.989902 -0.00904543 -4.04736 -1.77456 -0.0 0.0 -0.0 10.0564 8.28452 -19.9692 -30.7683 15.9574 -47.399 0.539658 14.9671 -0.0708902 -34.2111 2.3576 -3.61467 -5.81564 0.223321 42.9871 0.0 0.0 0.0 -12.8497 19.9667 2.8737 -4.27885 0.152372 0.638844 20.8257 -16.4341 -3.08722 30.6851 -0.0 -0.0 -0.0 0.0 -0.0 28.7653 -2.72881 7.75859 -18.9951 -0.306242 -2.88554 19.1887 -22.5739 2.72698 30.3668 -0.0 -0.0 0.0 0.0 0.0 
593.503840784 714.929 -1146.46268029 179.829767271 -45.7629626009 -177.353716259 -1.49568 -0.162177 -2.62725 -1.49184 0.00527149 -2.63224 -1.48896 0.625458 -2.55691 -1.49802 0.213938 -2.62355 -13.4122 16.5842 11.5289 -13.4488 24.5294 16.0035 -0.0 0.0 -0.0 10.4231 18.7064 18.3708 -19.7014 -42.3804 41.8496 1.57894 -38.0284 0.544142 -8.37841 -0.369422 1.00445 -0.383563 -4.64194 -4.55477 -0.0 0.0 -0.0 10.2634 8.55689 -20.4197 -31.3983 15.4174 -47.205 0.426434 11.9282 -0.04455 -34.1253 2.34915 -3.60761 -5.72379 0.655082 42.4361 0.0 0.0 0.0 -13.5776 20.7273 2.82238 -2.91119 0.108869 0.433461 18.5169 -16.1893 -2.77326 30.4458 -0.0 -0.0 -0.0 0.0 -0.0 28.8885 -4.20296 5.93366 -14.4799 -0.320543 -2.1931 19.3151 -22.2242 2.73899 30.1467 -0.0 -0.0 0.0 0.0 0.0 
